<svg width="137" height="53" viewBox="0 0 137 53" fill="none" xmlns="http://www.w3.org/2000/svg">
<g clip-path="url(#clip0_2_2)">
<line x1="1" y1="37.5" x2="137" y2="37.5" stroke="#565252"/>
<path d="M27.5371 40.8418H32.4297C33.0273 40.8418 33.5469 40.9062 33.9883 41.0352C34.4336 41.1602 34.8027 41.334 35.0957 41.5566C35.3887 41.7793 35.6055 42.0449 35.7461 42.3535C35.8906 42.6582 35.9629 42.9883 35.9629 43.3438C35.9629 43.9258 35.7793 44.4355 35.4121 44.873C35.834 45.123 36.1484 45.4473 36.3555 45.8457C36.5625 46.2441 36.666 46.6973 36.666 47.2051C36.666 47.6309 36.5938 48.0156 36.4492 48.3594C36.3086 48.7031 36.0918 48.998 35.7988 49.2441C35.5098 49.4863 35.1426 49.6738 34.6973 49.8066C34.2559 49.9355 33.7344 50 33.1328 50H27.5371V40.8418ZM33.1445 44.3574C33.3047 44.3574 33.4609 44.3633 33.6133 44.375C33.875 44.125 34.0059 43.8398 34.0059 43.5195C34.0059 43.1875 33.875 42.9316 33.6133 42.752C33.3555 42.5684 32.9766 42.4766 32.4766 42.4766H29.3945V44.3574H33.1445ZM33.1797 48.3828C33.6797 48.3828 34.0586 48.2754 34.3164 48.0605C34.5781 47.8457 34.709 47.543 34.709 47.1523C34.709 46.7617 34.5781 46.457 34.3164 46.2383C34.0586 46.0195 33.6797 45.9102 33.1797 45.9102H29.3945V48.3828H33.1797ZM39.1621 50.8672C39.3418 50.9844 39.5371 51.0879 39.748 51.1777C39.959 51.2676 40.1777 51.3418 40.4043 51.4004C40.6348 51.459 40.8691 51.502 41.1074 51.5293C41.3457 51.5605 41.582 51.5762 41.8164 51.5762C42.6133 51.5762 43.2266 51.4043 43.6562 51.0605C44.0898 50.7207 44.3066 50.209 44.3066 49.5254V49.291C44.1543 49.3965 43.9824 49.4941 43.791 49.584C43.6035 49.6699 43.4004 49.7441 43.1816 49.8066C42.9668 49.8691 42.7383 49.918 42.4961 49.9531C42.2578 49.9844 42.0156 50 41.7695 50C41.2422 50 40.7695 49.9238 40.3516 49.7715C39.9375 49.6152 39.5859 49.3887 39.2969 49.0918C39.0117 48.791 38.793 48.4219 38.6406 47.9844C38.4883 47.5469 38.4121 47.0469 38.4121 46.4844V43.0859H40.1406V46.0039C40.1406 46.8398 40.2988 47.457 40.6152 47.8555C40.9355 48.25 41.4395 48.4473 42.127 48.4473C42.6113 48.4473 43.0391 48.3633 43.4102 48.1953C43.7852 48.0234 44.084 47.8047 44.3066 47.5391V43.0859H46.041V49.209C46.041 49.8691 45.9473 50.4414 45.7598 50.9258C45.5723 51.4141 45.2988 51.8184 44.9395 52.1387C44.584 52.459 44.1465 52.6973 43.627 52.8535C43.1074 53.0137 42.5176 53.0938 41.8574 53.0938C41.2129 53.0938 40.6113 53.0254 40.0527 52.8887C39.4941 52.752 38.9824 52.5664 38.5176 52.332L39.1621 50.8672Z" fill="#DEDEDE"/>
<path d="M55.2485 41.6H56.3765V48.308L56.8325 48.968H59.6045V48.092H60.7445V50H56.2805L55.2485 48.452V41.6ZM63.4638 43.544H66.8838L67.9158 45.032L65.8878 47.12H63.5718V48.308L64.0158 48.956H66.4758L67.1478 48.296L67.7718 49.088L66.8838 50H63.4638L62.4678 48.524V44.576L63.4638 43.544ZM63.5718 44.936V46.148H65.4678L66.5718 44.984L66.3078 44.576H63.9198L63.5718 44.936ZM71.5591 49.424L70.9471 50.012V50.864L71.3671 51.488H73.0351L73.9711 50.552V49.7L73.8031 49.424H71.5591ZM70.9111 44.924V46.544H73.0711L73.9831 45.992V45.02L73.5631 44.42H71.3791L70.9111 44.924ZM73.1311 47.6H71.3431L70.9471 47.996L71.1751 48.38H74.3551L75.1231 49.58V50.876L73.4671 52.532H70.8391L69.7951 51.056V49.772L70.4551 49.112L69.6391 47.876L70.2511 47.264L69.7831 46.964V44.6L70.9471 43.376H73.1191L73.9831 43.892V43.376H75.1111V46.376L73.1311 47.6ZM77.8544 43.544H81.2744L82.3064 45.032L80.2784 47.12H77.9624V48.308L78.4064 48.956H80.8664L81.5384 48.296L82.1624 49.088L81.2744 50H77.8544L76.8584 48.524V44.576L77.8544 43.544ZM77.9624 44.936V46.148H79.8584L80.9624 44.984L80.6984 44.576H78.3104L77.9624 44.936ZM84.0897 43.544H89.4657V44.804L85.4457 48.968H89.4657V50H84.0897V49.016L88.2657 44.684V44.576H84.0897V43.544ZM91.729 43.316H93.529L94.525 44.804V48.992H96.709V50H91.237V48.992H93.421V44.972L93.001 44.336H91.729V43.316ZM93.289 41.84H94.657V40.472H93.289V41.84ZM98.4324 43.544H99.5604V44.06L100.424 43.544H102.908L103.916 45.02V50H102.776V45.188L102.356 44.576H99.8844L99.5604 44.912V50H98.4324V43.544Z" fill="white"/>
<path d="M15.24 34H5.736L6.312 9.36H18.696L20.04 17.648H20.328L21.672 9.36H33.96L34.536 34H25.032V21.2H24.744L22.728 34H17.544L15.528 20.88H15.24V34ZM35.89 9.36H46.258V25.424C46.258 25.488 46.29 25.648 46.354 25.904C46.4393 26.16 46.6953 26.288 47.122 26.288C47.5487 26.288 47.794 26.16 47.858 25.904C47.9433 25.648 47.986 25.488 47.986 25.424V9.36H58.354V25.872C58.354 27.0453 58.162 28.1547 57.778 29.2C57.394 30.224 56.7647 31.1413 55.89 31.952C55.0153 32.7413 53.8313 33.3707 52.338 33.84C50.866 34.288 49.0313 34.512 46.834 34.512C44.8927 34.512 43.2287 34.2773 41.842 33.808C40.4553 33.3387 39.3247 32.6987 38.45 31.888C37.5753 31.0773 36.9247 30.16 36.498 29.136C36.0927 28.112 35.89 27.0453 35.89 25.936V9.36ZM80.0315 20.304C78.9008 19.6213 77.6955 19.12 76.4155 18.8C75.1355 18.4587 73.5995 18.224 71.8075 18.096C71.6582 18.0747 71.5088 18.064 71.3595 18.064C71.2315 18.0427 71.1035 18.032 70.9755 18.032C70.5275 18.032 70.3035 18.2133 70.3035 18.576C70.3035 18.7893 70.4208 18.9387 70.6555 19.024C70.9115 19.088 71.2528 19.1413 71.6795 19.184C72.5115 19.2907 73.3862 19.4187 74.3035 19.568C75.2208 19.696 76.1168 19.8987 76.9915 20.176C77.8662 20.4533 78.6555 20.8587 79.3595 21.392C80.0848 21.9253 80.6502 22.6293 81.0555 23.504C81.4822 24.3787 81.6955 25.4773 81.6955 26.8C81.6955 28.272 81.3542 29.5093 80.6715 30.512C79.9888 31.4933 79.0608 32.2827 77.8875 32.88C76.7355 33.456 75.4128 33.872 73.9195 34.128C72.4475 34.384 70.9222 34.512 69.3435 34.512C67.5088 34.5333 65.6848 34.4267 63.8715 34.192C62.0795 33.9787 60.4902 33.7013 59.1035 33.36L59.9995 22.096C60.4902 22.4587 61.0768 22.8533 61.7595 23.28C62.4422 23.6853 63.3702 24.0587 64.5435 24.4C65.7168 24.7413 67.2635 25.008 69.1835 25.2C69.2902 25.2213 69.3862 25.232 69.4715 25.232C69.5782 25.232 69.6742 25.232 69.7595 25.232C69.9942 25.232 70.1648 25.2 70.2715 25.136C70.3995 25.072 70.4635 24.9333 70.4635 24.72C70.4635 24.4853 70.3568 24.336 70.1435 24.272C69.9515 24.208 69.6422 24.144 69.2155 24.08C68.0635 23.952 66.9115 23.7707 65.7595 23.536C64.6288 23.3013 63.5942 22.9387 62.6555 22.448C61.7168 21.9573 60.9595 21.2747 60.3835 20.4C59.8288 19.5253 59.5515 18.384 59.5515 16.976C59.5515 14.9707 60.0208 13.3813 60.9595 12.208C61.9195 11.0133 63.2102 10.16 64.8315 9.648C66.4528 9.11467 68.2662 8.848 70.2715 8.848C71.9568 8.848 73.7168 9.008 75.5515 9.328C77.3862 9.62667 79.1995 10.0427 80.9915 10.576L80.0315 20.304ZM103.344 20.304C102.213 19.6213 101.008 19.12 99.728 18.8C98.448 18.4587 96.912 18.224 95.12 18.096C94.9707 18.0747 94.8213 18.064 94.672 18.064C94.544 18.0427 94.416 18.032 94.288 18.032C93.84 18.032 93.616 18.2133 93.616 18.576C93.616 18.7893 93.7333 18.9387 93.968 19.024C94.224 19.088 94.5653 19.1413 94.992 19.184C95.824 19.2907 96.6987 19.4187 97.616 19.568C98.5333 19.696 99.4293 19.8987 100.304 20.176C101.179 20.4533 101.968 20.8587 102.672 21.392C103.397 21.9253 103.963 22.6293 104.368 23.504C104.795 24.3787 105.008 25.4773 105.008 26.8C105.008 28.272 104.667 29.5093 103.984 30.512C103.301 31.4933 102.373 32.2827 101.2 32.88C100.048 33.456 98.7253 33.872 97.232 34.128C95.76 34.384 94.2347 34.512 92.656 34.512C90.8213 34.5333 88.9973 34.4267 87.184 34.192C85.392 33.9787 83.8027 33.7013 82.416 33.36L83.312 22.096C83.8027 22.4587 84.3893 22.8533 85.072 23.28C85.7547 23.6853 86.6827 24.0587 87.856 24.4C89.0293 24.7413 90.576 25.008 92.496 25.2C92.6027 25.2213 92.6987 25.232 92.784 25.232C92.8907 25.232 92.9867 25.232 93.072 25.232C93.3067 25.232 93.4773 25.2 93.584 25.136C93.712 25.072 93.776 24.9333 93.776 24.72C93.776 24.4853 93.6693 24.336 93.456 24.272C93.264 24.208 92.9547 24.144 92.528 24.08C91.376 23.952 90.224 23.7707 89.072 23.536C87.9413 23.3013 86.9067 22.9387 85.968 22.448C85.0293 21.9573 84.272 21.2747 83.696 20.4C83.1413 19.5253 82.864 18.384 82.864 16.976C82.864 14.9707 83.3333 13.3813 84.272 12.208C85.232 11.0133 86.5227 10.16 88.144 9.648C89.7653 9.11467 91.5787 8.848 93.584 8.848C95.2693 8.848 97.0293 9.008 98.864 9.328C100.699 9.62667 102.512 10.0427 104.304 10.576L103.344 20.304ZM115.873 34L106.081 33.968V9.36H116.161L116.033 14.896L115.745 18.448H116.033L118.753 9.36H129.121L123.841 20.624L129.697 34H118.465L116.033 24.912H115.745L115.873 34Z" fill="white"/>
</g>
<defs>
<clipPath id="clip0_2_2">
<rect width="137" height="53" fill="white"/>
</clipPath>
</defs>
</svg>
